<?xml version="1.0" encoding="UTF-8"?>
<svg xmlns="http://www.w3.org/2000/svg" xmlns:xlink="http://www.w3.org/1999/xlink" width="100pt" height="100pt" viewBox="0 0 100 100" version="1.1">
<g id="surface1">
<path style=" stroke:none;fill-rule:nonzero;fill:rgb(20.784314%,27.843137%,45.098039%);fill-opacity:1;" d="M 13.742188 13.617188 C 6.296875 21.558594 1.835938 31.242188 0.464844 42.511719 C 0.160156 44.90625 0.207031 51.1875 0.542969 53.695312 C 1.742188 62.789062 4.9375 70.714844 10.179688 77.636719 C 10.996094 78.707031 11.859375 79.824219 12.113281 80.128906 L 12.578125 80.671875 L 14.671875 78.804688 L 16.765625 76.917969 L 15.628906 75.542969 C 13.039062 72.332031 10.628906 68.238281 9.046875 64.308594 C 6.839844 58.792969 5.898438 53.839844 5.882812 47.785156 C 5.882812 40.511719 7.414062 34.023438 10.691406 27.648438 C 11.746094 25.585938 14.351562 21.496094 15.375 20.3125 L 15.917969 19.703125 L 17.945312 21.511719 C 19.066406 22.5 19.976562 23.378906 19.976562 23.445312 C 19.976562 23.507812 19.5625 24.117188 19.035156 24.800781 C 15.453125 29.582031 13.074219 35.160156 11.96875 41.421875 C 11.539062 43.820312 11.378906 49.09375 11.648438 51.714844 C 12.402344 59.003906 15.566406 66.625 20.054688 72.042969 L 20.96875 73.144531 L 21.304688 72.824219 C 21.496094 72.648438 24.242188 70.207031 27.40625 67.375 C 30.570312 64.546875 33.226562 62.132812 33.304688 62.039062 C 33.382812 61.894531 33.128906 61.429688 32.554688 60.664062 C 31.53125 59.304688 30.109375 56.621094 29.5 54.925781 C 27.792969 50.117188 27.96875 44.300781 29.964844 39.472656 C 30.554688 38.035156 31.691406 35.988281 32.347656 35.160156 L 32.699219 34.726562 L 34.550781 36.40625 L 36.40625 38.082031 L 36.003906 38.660156 C 35.351562 39.632812 34.390625 41.789062 33.945312 43.308594 C 33.335938 45.339844 33.226562 48.839844 33.6875 51.074219 C 34.328125 54.207031 35.765625 56.925781 38.003906 59.242188 C 40.144531 61.464844 42.765625 63.0625 45.53125 63.828125 L 46.695312 64.148438 L 46.585938 62.230469 C 46.519531 61.191406 46.425781 59.960938 46.359375 59.515625 C 46.265625 58.730469 46.25 58.699219 45.464844 58.363281 C 42.175781 56.988281 39.648438 53.96875 38.769531 50.40625 C 38.402344 48.933594 38.433594 46.472656 38.835938 44.921875 C 39.457031 42.460938 40.910156 40.191406 42.8125 38.707031 C 43.339844 38.273438 43.789062 37.90625 43.789062 37.875 C 43.789062 37.796875 32.121094 27.34375 31.976562 27.28125 C 31.753906 27.199219 28.878906 30.347656 27.757812 31.898438 C 26.527344 33.609375 24.851562 36.882812 24.132812 38.976562 C 22.613281 43.371094 22.292969 48.679688 23.269531 53.457031 C 23.621094 55.136719 24.5 57.738281 25.347656 59.515625 C 25.921875 60.726562 26.015625 61.0625 25.859375 61.222656 C 25.746094 61.320312 24.785156 62.183594 23.730469 63.109375 L 21.832031 64.820312 L 21.445312 64.210938 C 20.726562 63.03125 19.496094 60.34375 18.890625 58.554688 C 17.660156 54.992188 17.101562 51.601562 17.101562 47.785156 C 17.101562 39.167969 20.265625 31.273438 26.304688 24.867188 L 27.710938 23.363281 L 27.136719 22.867188 C 26.816406 22.597656 24.035156 20.105469 20.933594 17.339844 C 17.851562 14.574219 15.277344 12.289062 15.199219 12.257812 C 15.117188 12.226562 14.464844 12.847656 13.742188 13.617188 Z M 13.742188 13.617188 "/>
<path style=" stroke:none;fill-rule:nonzero;fill:rgb(20.784314%,27.843137%,45.098039%);fill-opacity:1;" d="M 79.25 17.226562 C 76.199219 19.976562 73.417969 22.484375 73.035156 22.820312 L 72.363281 23.429688 L 73.703125 24.820312 C 78.609375 29.933594 81.710938 36.277344 82.703125 43.246094 C 83.039062 45.609375 83.039062 49.910156 82.703125 52.320312 C 82.191406 55.902344 81.105469 59.417969 79.488281 62.566406 C 78.210938 65.089844 78.433594 64.996094 76.949219 63.636719 C 76.230469 63.011719 75.289062 62.152344 74.839844 61.75 L 74.007812 61.015625 L 74.710938 59.59375 C 75.574219 57.789062 76.4375 55.277344 76.871094 53.21875 C 77.300781 51.140625 77.460938 46.839844 77.203125 44.507812 C 76.5 38.578125 73.625 32.648438 69.390625 28.476562 L 68.128906 27.214844 L 62.183594 32.554688 L 56.238281 37.875 L 56.765625 38.273438 C 59.578125 40.398438 61.238281 43.339844 61.605469 46.839844 C 61.832031 48.855469 61.128906 51.761719 59.976562 53.664062 C 58.792969 55.628906 56.382812 57.738281 54.464844 58.460938 L 53.746094 58.746094 L 53.632812 60.296875 C 53.585938 61.144531 53.488281 62.375 53.441406 62.996094 L 53.328125 64.148438 L 54.511719 63.84375 C 56.316406 63.347656 59.003906 61.957031 60.570312 60.695312 C 64.867188 57.195312 67.265625 51.425781 66.640625 46.074219 C 66.335938 43.453125 65.554688 41.101562 64.292969 39.027344 L 63.699219 38.066406 L 64.5 37.332031 C 64.949219 36.933594 65.777344 36.164062 66.371094 35.652344 C 67.617188 34.566406 67.390625 34.488281 68.640625 36.53125 C 71.898438 41.917969 72.648438 48.710938 70.636719 54.734375 C 70.078125 56.414062 68.640625 59.195312 67.601562 60.570312 C 67.074219 61.273438 66.640625 61.878906 66.65625 61.925781 C 66.65625 61.976562 69.46875 64.515625 72.90625 67.585938 L 79.136719 73.160156 L 79.457031 72.777344 C 82.671875 68.78125 84.714844 65.265625 86.203125 61.273438 C 90.726562 49.046875 88.792969 35.160156 81.136719 24.929688 C 80.609375 24.226562 80.175781 23.570312 80.160156 23.492188 C 80.144531 23.332031 84.042969 19.738281 84.21875 19.738281 C 84.269531 19.738281 84.8125 20.425781 85.417969 21.253906 C 93.328125 32.011719 96.0625 45.113281 93.074219 57.929688 C 91.683594 63.941406 88.421875 70.621094 84.554688 75.414062 C 83.917969 76.183594 83.421875 76.886719 83.453125 76.949219 C 83.484375 77.011719 84.394531 77.875 85.5 78.867188 L 87.496094 80.640625 L 88.039062 80.035156 C 88.328125 79.699219 89.191406 78.59375 89.957031 77.589844 C 94.257812 71.898438 97.4375 64.820312 98.84375 57.851562 C 99.625 54 99.785156 52.210938 99.785156 47.703125 C 99.785156 42.269531 99.339844 38.992188 97.964844 34.070312 C 96.300781 28.125 92.976562 21.6875 89.046875 16.765625 C 87.769531 15.148438 85.066406 12.210938 84.875 12.242188 C 84.828125 12.242188 82.285156 14.496094 79.25 17.226562 Z M 79.25 17.226562 "/>
<path style=" stroke:none;fill-rule:nonzero;fill:rgb(94.509804%,41.960784%,13.72549%);fill-opacity:1;" d="M 48.421875 41.535156 C 46.617188 42.046875 45.003906 43.390625 44.171875 45.066406 C 43.742188 45.945312 43.707031 46.167969 43.707031 47.785156 C 43.707031 49.460938 43.742188 49.605469 44.234375 50.613281 C 44.777344 51.730469 46.074219 53.089844 46.984375 53.488281 C 47.257812 53.601562 47.511719 53.839844 47.542969 54.015625 C 47.574219 54.191406 48.121094 61.496094 48.726562 70.238281 C 49.351562 78.980469 49.925781 86.425781 49.988281 86.777344 C 50.054688 87.191406 50.5 81.871094 51.265625 71.277344 C 51.90625 62.390625 52.480469 54.832031 52.53125 54.449219 C 52.59375 53.886719 52.707031 53.710938 53.105469 53.503906 C 53.953125 53.074219 55.3125 51.652344 55.773438 50.722656 C 57.035156 48.246094 56.605469 45.386719 54.671875 43.339844 C 53.074219 41.648438 50.597656 40.925781 48.421875 41.535156 Z M 48.421875 41.535156 "/>
</g>
</svg>
