<?xml version="1.0" standalone="no"?>
<!DOCTYPE svg PUBLIC "-//W3C//DTD SVG 20010904//EN"
 "http://www.w3.org/TR/2001/REC-SVG-20010904/DTD/svg10.dtd">
<svg version="1.0" xmlns="http://www.w3.org/2000/svg"
 width="477.000000pt" height="477.000000pt" viewBox="0 0 626.000000 477.000000"
 preserveAspectRatio="xMidYMid meet">

<g transform="translate(0.000000,477.000000) scale(0.100000,-0.100000)"
fill="#354773" stroke="none">
<path d="M860 4663 c-466 -497 -745 -1103 -831 -1808 -19 -150 -16 -543 5
-700 75 -569 275 -1065 603 -1498 51 -67 105 -137 121 -156 l29 -34 131 117
131 118 -71 86 c-162 201 -313 457 -412 703 -138 345 -197 655 -198 1034 0
455 96 861 301 1260 66 129 229 385 293 459 l34 38 127 -113 c70 -62 127 -117
127 -121 0 -4 -26 -42 -59 -85 -224 -299 -373 -648 -442 -1040 -27 -150 -37
-480 -20 -644 47 -456 245 -933 526 -1272 l57 -69 21 20 c12 11 184 164 382
341 198 177 364 328 369 334 5 9 -11 38 -47 86 -64 85 -153 253 -191 359 -107
301 -96 665 29 967 37 90 108 218 149 270 l22 27 116 -105 116 -105 -25 -36
c-41 -61 -101 -196 -129 -291 -38 -127 -45 -346 -16 -486 40 -196 130 -366
270 -511 134 -139 298 -239 471 -287 l73 -20 -7 120 c-4 65 -10 142 -14 170
-6 49 -7 51 -56 72 -206 86 -364 275 -419 498 -23 92 -21 246 4 343 39 154
130 296 249 389 33 27 61 50 61 52 0 5 -730 659 -739 663 -14 5 -194 -192
-264 -289 -77 -107 -182 -312 -227 -443 -95 -275 -115 -607 -54 -906 22 -105
77 -268 130 -379 36 -76 42 -97 32 -107 -7 -6 -67 -60 -133 -118 l-119 -107
-24 38 c-45 74 -122 242 -160 354 -77 223 -112 435 -112 674 0 539 198 1033
576 1434 l88 94 -36 31 c-20 17 -194 173 -388 346 -193 173 -354 316 -359 318
-5 2 -46 -37 -91 -85z"/>
<path d="M4959 4437 c-191 -172 -365 -329 -389 -350 l-42 -38 84 -87 c307
-320 501 -717 563 -1153 21 -148 21 -417 0 -568 -32 -224 -100 -444 -201 -641
-80 -158 -66 -152 -159 -67 -45 39 -104 93 -132 118 l-52 46 44 89 c54 113
108 270 135 399 27 130 37 399 21 545 -44 371 -224 742 -489 1003 l-79 79
-372 -334 -372 -333 33 -25 c176 -133 280 -317 303 -536 14 -126 -30 -308
-102 -427 -74 -123 -225 -255 -345 -300 l-45 -18 -7 -97 c-3 -53 -9 -130 -12
-169 l-7 -72 74 19 c113 31 281 118 379 197 269 219 419 580 380 915 -19 164
-68 311 -147 441 l-37 60 50 46 c28 25 80 73 117 105 78 68 64 73 142 -55 204
-337 251 -762 125 -1139 -35 -105 -125 -279 -190 -365 -33 -44 -60 -82 -59
-85 0 -3 176 -162 391 -354 l390 -349 20 24 c201 250 329 470 422 720 283 765
162 1634 -317 2274 -33 44 -60 85 -61 90 -1 10 243 235 254 235 3 0 37 -43 75
-95 495 -673 666 -1493 479 -2295 -87 -376 -291 -794 -533 -1094 -40 -48 -71
-92 -69 -96 2 -4 59 -58 128 -120 l125 -111 34 38 c18 21 72 90 120 153 269
356 468 799 556 1235 49 241 59 353 59 635 0 340 -28 545 -114 853 -104 372
-312 775 -558 1083 -80 101 -249 285 -261 283 -3 0 -162 -141 -352 -312z"/>
</g><g transform="translate(0.000000,477.000000) scale(0.100000,-0.100000)"
       fill="#f16b23" stroke="none">
<path d="M3030 2916 c-113 -32 -214 -116 -266 -221 -27 -55 -29 -69 -29 -170
0 -105 2 -114 33 -177 34 -70 115 -155 172 -180 17 -7 33 -22 35 -33 2 -11 36
-468 74 -1015 39 -547 75 -1013 79 -1035 4 -26 32 307 80 970 40 556 76 1029
79 1053 4 35 11 46 36 59 53 27 138 116 167 174 79 155 52 334 -69 462 -100
106 -255 151 -391 113z"/>
</g>
</svg>
